<svg xmlns="http://www.w3.org/2000/svg" width="661" height="291"><g fill="none" fill-rule="evenodd"><path fill="#FFF" fill-rule="nonzero" d="M46.6 289.1v-11H46a13 13 0 0 1-5.3 8.7 20 20 0 0 1-12.4 3.5 26.2 26.2 0 0 1-24.6-16A45.6 45.6 0 0 1 0 254.6c0-7.8 1.3-14.4 3.9-19.8a28 28 0 0 1 11-12.3 31.6 31.6 0 0 1 16.3-4.2A27.7 27.7 0 0 1 58 234.5l-12.2 7a17 17 0 0 0-5-6.9 14.1 14.1 0 0 0-9.4-2.8 17 17 0 0 0-8 1.8 12.2 12.2 0 0 0-5.4 5.6 21.2 21.2 0 0 0-1.9 9.5V260c0 3.9.6 7 1.9 9.5a12 12 0 0 0 5.3 5.6 17 17 0 0 0 8.1 1.9c2.5 0 4.8-.4 6.9-1.2 2-.8 3.6-2 4.9-3.5a8.8 8.8 0 0 0 1.8-5.7V263H32v-12.7h27.3v38.8H46.6Zm62.1-25.5V289h-15v-69.6h32.8c4.3 0 8 1 11 2.8a19 19 0 0 1 7.3 7.8c1.7 3.3 2.5 7.2 2.5 11.7 0 4.6-1 8.7-3 12.3a18.3 18.3 0 0 1-9.5 7.7l13.5 27.3h-16.7l-12-25.5h-10.9Zm0-12.8h15.9c1.5 0 2.8-.2 3.8-.8 1.1-.5 2-1.3 2.5-2.3.6-1 1-2.3 1-3.8v-4.3c0-1.6-.4-2.8-1-3.8a6 6 0 0 0-2.5-2.3c-1-.6-2.3-.8-3.8-.8h-15.9v18.1Zm129.7 38.3h-15.6l-5-16.5h-23l-5 16.5h-15.2l22.7-69.6H216l22.5 69.6Zm-24.2-29.4-4.3-14.5-3.5-12h-.5l-3.3 12-4.3 14.5h15.9Zm68.7 29.4h-15v-69.6h32.6c4.3 0 8 1 11.1 2.8a19 19 0 0 1 7.3 7.8c1.7 3.4 2.6 7.3 2.6 11.7a25 25 0 0 1-2.6 11.5c-1.7 3.3-4.1 6-7.3 7.9a21.1 21.1 0 0 1-11.1 2.8h-17.6v25Zm0-56.4v18.1h15.8a8 8 0 0 0 3.9-.8c1-.5 1.8-1.3 2.4-2.3.6-1 1-2.3 1-3.8v-4.3c0-1.6-.4-2.8-1-3.8a6 6 0 0 0-2.4-2.3 8 8 0 0 0-3.9-.8h-15.8ZM393 289.1v-28.5h-26.2v28.5h-15v-69.6h15v27.7H393v-27.7h15v69.6zm80.4 0h-32.8v-12h8.9v-45.5h-9v-12h32.9v12h-9V277h9zm31.9-69.6H520v42.7c0 3.3.4 6 1.2 8.1a9.4 9.4 0 0 0 4 5 14 14 0 0 0 7.3 1.6c3 0 5.3-.6 7.1-1.7a9.7 9.7 0 0 0 4-4.9c1-2.1 1.3-4.8 1.3-8.1v-42.7h14.7v41.1a45 45 0 0 1-2.7 16.9 18.4 18.4 0 0 1-8.6 9.7 34 34 0 0 1-15.8 3.1 34 34 0 0 1-15.9-3.1c-4-2.1-6.8-5.4-8.6-9.7a45 45 0 0 1-2.7-16.9v-41Zm89 69.6v-69.6h15.9l9.2 17.7 7.7 15h.2l7.7-15 9-17.7h16v69.6h-14v-45.7h-.3l-5 10.2-13.5 24.6-13.1-24.5-5.3-11h-.3v46.5z"/><path fill="#FFF" d="m398 4 1.7 1.2c8.3 6 12.4 16 10.5 26.4v.4l-.1.5v.2l-.2.5v.1l-.2.6v.3c-.8 2.4-2.4 5.3-10.7 20.1l-.6 1.1-.6 1.1-1.8 3.3a34 34 0 0 1-5.6 7.8l-2.7 2.2-.1.1-.4.2-.2.2-15.8 27.6-1.4 2.4-.5 1-.6.8c-7.1 12.5-13.7 24-15 26l-.2.5-.3.5-1 1.9-1.4 2.2a17 17 0 0 1-3.2 3.6l-.2.2a35 35 0 0 1-5.1 3.3c-.8 1.9-2 3.6-3.6 5l-.3.3-.2.2h-.1l-.2.2a86.4 86.4 0 0 1-12.4 6.8l-3 1.6-.3.1-.5 1-.7 1-1.3 2-1.7 3-2 3-.1.3a26.7 26.7 0 0 1-4.7 5.8 13 13 0 0 1-5 2.8 325.6 325.6 0 0 0 57.5-4.2l-.4-1.8-.7-2c-1-3.3-1.2-3.8-1.4-5.2-.7-3.2-.4-5.9 1.1-8.3 2.2-3.4 6.4-6 12.3-7.9a32 32 0 0 1 6.7-1.4c.7 0 1.4.2 2.2.4 2.6.9 4.4 3 4.7 6 .3 2.3-.5 4.2-2 5.7l-1.4 1-1.4.8-.4.2a30.3 30.3 0 0 0-4.3 2l.7 1.2.6 1c3.7 6.3 4.5 9.1 3.6 13.8-1.5 7.5-7.2 12.3-16.4 14.2l-1.1.3-1.2.2a398 398 0 0 1-65.5 4h-2.3c-9 0-18.9-.1-29.4-.4-1.9 0-3.7-.7-5.3-1.8-2-1.6-3.8-5.1-4.2-8.5l-.1-.8a8.6 8.6 0 0 1 1-5.1v-.2l.2-.4.2-.3a1245.5 1245.5 0 0 1 2.4-5l.7-1.5.2-.4a56.8 56.8 0 0 1 4.1-7.4l.2-.2.4-.6.5-.7 1.6-2 2.2-3 1.3-1.7.7-1 .2-.2a13 13 0 0 1-.3-4.9 17 17 0 0 1 3.1-7.3l.2-.3 1.8-2.6 1-1.3 2.5-3.6.5-.6 1.3-1.8.4-.4.3-.5.1-.6v-.4l.2-1v-.5l.2-2 .2-2.8v-.6c.3-3 .6-5.2 1-7.2a16.4 16.4 0 0 1 3.9-8l.2-.9v-.7l.1-.3.2-1 .4-2.2a18 18 0 0 1 4-7l6.6-7.6 1.3-1.6 1.7-2 1.2-1.4 1.7-2 1.2-1.5c1-1 1.8-2 2.6-3l1.9-2.1 2.5-3 14.6-17.2 4.3-5 1.7-1.8 2.3-2.8.5-.5.8-1 .3-.3 1.6-2 .2-1c.5-1.6 1.1-3.2 2-4.8.8-1.5 5-6.5 10.8-13.3l.7-.8a149 149 0 0 1 12.9-14 26 26 0 0 1 29.2-1Z"/><path fill="#000" d="m380.6 150.1-.3.1a20.7 20.7 0 0 0-8.4 5.4c-1.4 2-1 3.8 1.5 8l.6.9c2.7 4.6 3.3 6 2.7 8.8-.8 4-3.6 7.3-10.8 8.8l-1.2.2-1 .2c-18.6 3.4-50.5 4.6-95.8 3.5-.4 0-.9-.2-1.3-.5a1 1 0 0 1 .4-1.8l23-3a29 29 0 0 1 4-.3h5c30.4 0 52.2-1.4 65.6-4.2 12.9-2.7 1-16.3 3.7-20.6 2.6-4.2 16.1-7.2 12.3-5.5Zm-45-22.1.1.4c.5 1.8 1.8 7.8-2 11.4l-.5.3a58 58 0 0 1-10 5.4l-4.3 2.3c-1.9 1-2.2 1.3-3.5 3.4l-1.6 2.6c-6.2 10-7.3 12.5-11.6 12.7h-.4c-1.6 0-1.9-.1-2.7 1.1l-.8 1.4-.8 1.2-.8 1.2-2 3.2-1.4 2.1c-.3.2-4.3.7-9.1 1.4l-8.8 1.1-4 .6-1.6.2-1.5.3-1.1.1c-1 .1-1.6.1-1.4-.3v-.3l1-1.6 2.1-4.5.5-1.1c3.2-6.8 3.9-6.8 9.4-14.3l1.2-1.6.6-.8c1.4-1.9 1.7-2.4 1.6-2.7a.4.4 0 0 0 0-.1l-.3-.8c-2-5-.3-6 6.6-15.7l.4-.7c1.2-1.7 1.3-1.5 2.5-3.3 2.2-3.2.6-17.5 4.4-21.6 9.2-10.1 34.6-.8 39.8 17Zm-40 24.8-.3.2v.1l-.1.1-.2.2-.6.8-.9 1.4-.1.2-.4.6-1.6 2.1c-.3.7-.4 1.4-.2 3l.6 4 .9 5.8.1 1 .1.1.2-.3 1.4-2.1 2-3 3.7-5.8.2-.3.2-.3.1-.3c.4-.7.1-1.6-1.3-3.8l-.3-.4a19.6 19.6 0 0 0-3.5-3.3Zm-7-2.2c-.4 0-.7.1-.9.3-.4.2-.7.7-1.5 1.8l-1.5 2-.5.8-.6.7-1.6 2.2-1.2 1.7-2.3 3-.1.2a70 70 0 0 1-1.5 1.7l.7-.4 3-2 3.3-2 1.4-1 2-1.3.2-.2a5 5 0 0 0 1-.9l.7-1 2.4-3.5 1-1.5c-.3-.1-.8-.3-1.7-.4h-.5l-1.8-.2Zm19.1-39.9h-.9l-2.3.2c-4.1.4-3.2 1.9-4.2 5.9l-.1.6c-2.4 9.7-2.1 12.8-4 15.4l-.5.6-5 6.8-1.6 2-.1.3-.4.5v.1c.2.2.7.4 3.2.7.5.1.8-.1 1.6-1.3l6.7-9.1.3-.4v-.1l.1-.1v-.1a180 180 0 0 0 7.9-20.9c.3-1-.1-1-.7-1Zm95-80.1v.7c-.2.7-.5 1.5-1.3 3l-.2.4c-1.5 3-4.7 8.7-11.7 21.4-5 9-7.3 7.2-8.7 9.7l-.1.3c-2.4 4.4-33 57.4-33.5 58.4l-.5.9c-2.8 4.7-2.8 5.3-8.1 8.4-1.8 1 2.5-4.3-2-13.2-7.3-14.3-27-23-37.7-14.1l-.3.2c-.2.2-.3.2-.8 0l.1-.2c.8-3.5.1-4.1 3-7.6l6.7-8 3-3.5 2.9-3.4 2.5-3 1.3-1.4 1.6-1.8 9.9-11.7.8-1 .4-.4.8-1 9.6-11.2 1.8-2 1.4-1.7 1.5-1.7 1.4-1.6a28.3 28.3 0 0 0 2.7-3.6c.1-.7.2-2.4 1.7-5.2.5-1 5-6.3 9.8-11.8l.6-.8 1-1c5-5.9 10-11.5 10.9-12.1 12.6-9.5 33 1.6 29.6 19.6Zm-39.6 5.7h-.4c-5.6.3-5.4 1.6-9 6l-6 7.4L335 65.5l-21 26-2 2.5c-1.2 1.5-2 2.6-1.6 2.6h1.9c.9 0 2.1.2 4.5.7l1 .3h.1c1 .1 1.3-.8 7-8.5l5.7-7.5 1.1-1.5.8-1 .7-1 .4-.6.8-1c11.4-15.3 22-29.8 24-32.6l.3-.3.4-.6c0-.2.2-.3.3-.5l.5-.7.2-.4c1-1.4 1.8-2 4.7-2 9.6 0 14.5 7 14.7 7 1.3-.1-4.8-7-9.4-8.7l-.3-.1c-3.8-1.3-5.6-1.2-6.7-1.3Z"/></g></svg>