<svg xmlns="http://www.w3.org/2000/svg" width="153" height="194"><g fill="none" fill-rule="evenodd"><path fill="#FFF" d="m139.9 4 1.7 1.2c8.3 6 12.4 16 10.6 26.4v.4l-.2.5v.2l-.1.5v.1l-.2.6v.2l-.1.1c-.8 2.4-2.4 5.3-10.6 20.1l-.6 1.1-.6 1.1-1.8 3.3a34 34 0 0 1-5.7 7.8l-2.6 2.2-.2.1-.3.2-.3.2-15.7 27.6-1.5 2.4-.5 1-.5.8c-7.2 12.5-13.7 24-15 26l-.2.5-.4.5-1 1.9-1.4 2.2a17 17 0 0 1-3.2 3.6l-.2.2c-1.2 1-2.7 2-5 3.3-.9 1.9-2 3.6-3.7 5l-.3.3-.2.2H80l-.1.2a86.4 86.4 0 0 1-12.4 6.8l-3 1.6-.3.1-.6 1-.7 1-1.2 2-1.8 3-2 3v.3a26.7 26.7 0 0 1-4.7 5.8 13 13 0 0 1-5 2.8 325.6 325.6 0 0 0 57.4-4.2l-.4-1.8-.6-2-1.5-5.2a11 11 0 0 1 1.2-8.3c2.2-3.4 6.3-6 12.3-7.9a32 32 0 0 1 6.6-1.4c.8 0 1.5.2 2.2.4a7 7 0 0 1 4.8 6c.2 2.3-.6 4.2-2 5.7l-1.4 1-1.5.8-.4.2a30.3 30.3 0 0 0-4.2 2l.6 1.2.6 1c3.8 6.3 4.6 9.1 3.6 13.8-1.5 7.5-7.2 12.3-16.3 14.2l-1.2.3-1.2.2c-14.3 2.6-36 4-65.4 4H39c-9 0-18.8-.1-29.3-.4a9 9 0 0 1-5.3-1.8 13.9 13.9 0 0 1-4.3-8.5v-.8a8.6 8.6 0 0 1 .9-5.1v-.2l.3-.4.1-.3a1245.5 1245.5 0 0 1 2.5-5l.7-1.5.2-.4a56.8 56.8 0 0 1 4-7.4l.2-.2.5-.6.5-.7 1.5-2 2.3-3 1.2-1.7.7-1 .3-.2a13 13 0 0 1-.3-4.9 17 17 0 0 1 3-7.3l.3-.3 1.8-2.6 1-1.3 2.5-3.6.4-.6 1.4-1.8.3-.4.4-.5v-.6l.1-.4.2-1v-.5l.2-2 .1-2.8.1-.6c.2-3 .5-5.2 1-7.2a16.4 16.4 0 0 1 3.8-8l.2-.9.1-.7v-.3l.2-1 .5-2.2a18 18 0 0 1 4-7l6.5-7.6 1.3-1.6 1.7-2 1.2-1.4 1.7-2 1.3-1.5 2.5-3 2-2.1 2.4-3 14.7-17.2 4.3-5 1.6-1.8 2.4-2.8.4-.5.8-1 .4-.3 1.5-2 .3-1c.4-1.6 1-3.2 2-4.8.8-1.5 5-6.5 10.8-13.3l.6-.8a144 144 0 0 1 13-14 26 26 0 0 1 29.2-1Z"/><path fill="#000" d="m122.5 150.1-.2.1c-4.5 1.9-7.3 3.7-8.5 5.4-1.3 2-.9 3.8 1.5 8l.6 1c2.8 4.5 3.3 6 2.8 8.7-.8 4-3.7 7.3-10.9 8.8l-1.1.2-1.1.2C87 185.9 55 187.1 9.8 186c-.4 0-.8-.2-1.3-.5a1 1 0 0 1 .5-1.8l23-3a29 29 0 0 1 4-.3h5a359 359 0 0 0 65.6-4.2c12.8-2.7 1-16.3 3.6-20.6 2.6-4.2 16.2-7.2 12.3-5.5Zm-45-22.1.2.4c.4 1.8 1.7 7.8-2.1 11.4l-.4.3c-.6.5-1.7 1.2-10 5.4l-4.4 2.3c-1.9 1-2.1 1.3-3.4 3.4l-1.6 2.6c-6.2 10-7.4 12.5-11.7 12.7h-.3c-1.6 0-1.9-.1-2.7 1.1l-.9 1.4-.7 1.2-.8 1.2-2 3.2-1.5 2.1c-.2.2-4.2.7-9 1.4l-8.8 1.1-4 .6-1.7.2-1.5.3-1 .1c-1.1.1-1.6.1-1.5-.3v-.1l.1-.2.9-1.6 2.2-4.5.5-1.1c3.1-6.8 3.8-6.8 9.4-14.3l1.1-1.6.6-.8c1.5-1.9 1.7-2.4 1.7-2.7a.4.4 0 0 0 0-.1l-.3-.8c-2-5-.4-6 6.5-15.7l.5-.6 2.5-3.4c2.2-3.2.5-17.5 4.3-21.6 9.3-10.1 34.7-.8 39.8 17Zm-40 24.8-.2.2-.1.1-.1.1-.1.2-.6.8-1 1.4v.2h-.1l-.4.6-1.5 2.1c-.4.7-.5 1.4-.3 3l.6 4 1 5.8v1l.2.1.2-.3 1.4-2.1 1.9-3 3.8-5.8c0-.2.1-.3.2-.3l.1-.3.2-.3c.3-.7 0-1.6-1.4-3.8l-.3-.4a19.6 19.6 0 0 0-3.5-3.3Zm-7-2.2c-.4 0-.6.1-.8.3-.4.2-.8.7-1.6 1.8l-1.5 2-.5.8-.5.7-1.6 2.2-1.3 1.7-2.2 3-.2.2A70 70 0 0 1 19 165l.6-.4 3.1-2 3.2-2 1.4-1 2-1.3.2-.2a5 5 0 0 0 1-.9l.7-1 2.5-3.5 1-1.5-1.8-.4h-.4l-1.9-.2Zm19.2-39.9h-.9l-2.4.2c-4 .4-3.1 1.9-4.1 5.9l-.2.6c-2.3 9.7-2 12.8-4 15.4l-.4.6-5.1 6.8-1.5 2-.2.3-.3.5v.1c.1.2.7.4 3.2.7.5.1.7-.1 1.6-1.3l6.6-9.1.3-.4v-.1l.1-.1.1-.1a180 180 0 0 0 7.8-20.9c.3-1-.1-1-.6-1Zm95-80.1v.5l-.1.1v.1c-.2.7-.5 1.5-1.3 3l-.1.4c-1.5 3-4.7 8.7-11.8 21.4-5 9-7.3 7.2-8.6 9.7l-.2.3c-2.3 4.4-32.9 57.4-33.5 58.4l-.5.9c-2.7 4.7-2.7 5.3-8 8.4-1.8 1 2.4-4.3-2-13.2-7.3-14.3-27.1-23-37.8-14.1l-.2.2c-.3.2-.4.2-.8 0v-.2c.8-3.5.1-4.1 3-7.6l6.8-8 3-3.5 2.8-3.4 2.6-3 1.2-1.4 1.6-1.8 10-11.7.7-1 .4-.4.9-1 9.5-11.2 1.8-2 1.5-1.7L87 47l1.4-1.6a28.3 28.3 0 0 0 2.7-3.6c.2-.7.3-2.4 1.8-5.2.5-1 5-6.3 9.7-11.8l.6-.8 1-1c5-5.9 10-11.5 11-12.1 12.6-9.5 33 1.6 29.5 19.6ZM105 36.3h-.4c-5.5.3-5.4 1.6-8.9 6l-6 7.4-12.8 15.8-20.9 26-2 2.5c-1.3 1.5-2 2.6-1.6 2.6h1.8c1 0 2.2.2 4.6.7l1 .3c1 .2 1.3-.8 7-8.5l5.7-7.5 1.2-1.5.7-1 .8-1 .4-.6.7-1L100.4 44l.2-.3.4-.6.3-.5.5-.7.3-.4c1-1.4 1.7-2 4.7-2 9.5 0 14.4 7 14.7 7 1.3-.1-4.9-7-9.5-8.7l-.3-.1c-3.7-1.3-5.6-1.2-6.7-1.3Z"/></g></svg>