<svg xmlns="http://www.w3.org/2000/svg" width="661" height="281"><g fill="none" fill-rule="evenodd"><path fill="#000" fill-rule="nonzero" d="M46.6 279.1v-11H46a13 13 0 0 1-5.3 8.7 20 20 0 0 1-12.4 3.5 26.2 26.2 0 0 1-24.6-16A45.6 45.6 0 0 1 0 244.6c0-7.8 1.3-14.4 3.9-19.8a28 28 0 0 1 11-12.3 31.6 31.6 0 0 1 16.3-4.2A27.7 27.7 0 0 1 58 224.5l-12.2 7a17 17 0 0 0-5-6.9 14.1 14.1 0 0 0-9.4-2.8 17 17 0 0 0-8 1.8 12.2 12.2 0 0 0-5.4 5.6 21.2 21.2 0 0 0-1.9 9.5V250c0 3.9.6 7 1.9 9.5a12 12 0 0 0 5.3 5.6 17 17 0 0 0 8.1 1.9c2.5 0 4.8-.4 6.9-1.2 2-.8 3.6-2 4.9-3.5a8.8 8.8 0 0 0 1.8-5.7V253H32v-12.7h27.3v38.8H46.6Zm62.1-25.5V279h-15v-69.6h32.8c4.3 0 8 1 11 2.8a19 19 0 0 1 7.3 7.8c1.7 3.3 2.5 7.2 2.5 11.7 0 4.6-1 8.7-3 12.3a18.3 18.3 0 0 1-9.5 7.7l13.5 27.3h-16.7l-12-25.5h-10.9Zm0-12.8h15.9c1.5 0 2.8-.2 3.8-.8 1.1-.5 2-1.3 2.5-2.3.6-1 1-2.3 1-3.8v-4.3c0-1.6-.4-2.8-1-3.8a6 6 0 0 0-2.5-2.3c-1-.6-2.3-.8-3.8-.8h-15.9v18.1Zm129.7 38.3h-15.6l-5-16.5h-23l-5 16.5h-15.2l22.7-69.6H216l22.5 69.6Zm-24.2-29.4-4.3-14.5-3.5-12h-.5l-3.3 12-4.3 14.5h15.9Zm68.7 29.4h-15v-69.6h32.6c4.3 0 8 1 11.1 2.8a19 19 0 0 1 7.3 7.8c1.7 3.4 2.6 7.3 2.6 11.7a25 25 0 0 1-2.6 11.5c-1.7 3.3-4.1 6-7.3 7.9a21.1 21.1 0 0 1-11.1 2.8h-17.6v25Zm0-56.4v18.1h15.8a8 8 0 0 0 3.9-.8c1-.5 1.8-1.3 2.4-2.3.6-1 1-2.3 1-3.8v-4.3c0-1.6-.4-2.8-1-3.8a6 6 0 0 0-2.4-2.3 8 8 0 0 0-3.9-.8h-15.8ZM393 279.1v-28.5h-26.2v28.5h-15v-69.6h15v27.7H393v-27.7h15v69.6zm80.4 0h-32.8v-12h8.9v-45.5h-9v-12h32.9v12h-9V267h9zm31.9-69.6H520v42.7c0 3.3.4 6 1.2 8.1a9.4 9.4 0 0 0 4 5 14 14 0 0 0 7.3 1.6c3 0 5.3-.6 7.1-1.7a9.7 9.7 0 0 0 4-4.9c1-2.1 1.3-4.8 1.3-8.1v-42.7h14.7v41.1a45 45 0 0 1-2.7 16.9 18.4 18.4 0 0 1-8.6 9.7 34 34 0 0 1-15.8 3.1 34 34 0 0 1-15.9-3.1c-4-2.1-6.8-5.4-8.6-9.7a45 45 0 0 1-2.7-16.9v-41Zm89 69.6v-69.6h15.9l9.2 17.7 7.7 15h.2l7.7-15 9-17.7h16v69.6h-14v-45.7h-.3l-5 10.2-13.5 24.6-13.1-24.5-5.3-11h-.3v46.5z"/><path fill="#010101" d="m331.6 119.8.1.2c.4 1.5 2 7.8-2 11.5l-.2.2-.2.2c-.6.5-1.7 1.2-11 6l-2.9 1.4c-2.3 1.2-2.5 1.3-4 3.8l-.7 1.1c-7 11.2-8 13.7-12.6 13.9h-.1c-1.7 0-2-.1-2.8 1.3l-.3.5-.5.7-.7 1.2-.8 1.2-1.1 1.7-2.4 3.6-9 1.3-7.5 1-5.2.7-1 .1-2.2.4-1 .1c-1.1.2-1.6.2-1.5-.3l.1-.2c.3-.5.8-1.4 3-6.2l.6-1c3.2-7 3.9-6.8 9.7-14.7l.6-.9.2-.2.6-.8c1.5-2 1.7-2.5 1.6-2.8v-.2c-2.3-5.6-.9-6.2 6.3-16.3l.4-.6 2.5-3.3c2.2-3.2.6-17.4 4.3-21.5 9.3-10 34.6-.8 39.7 17Zm-39.8 24.7-.4.3-1 1.3-.6 1-.2.3v.1l-2 2.7c-.4.7-.4 1.4-.2 3.2l.6 3.7.5 3.2.3 2.6.2 1v.2l.1-.1.2-.3.5-.8 1.3-1.9 1.5-2.4 1.3-2 2.3-3.5.4-.6.3-.6c.3-.7 0-1.5-1.4-3.7v-.2a16 16 0 0 0-1.2-1.3c-.8-.8-1.6-1.6-2.5-2.2Zm-7-2.2c-.4 0-.7.1-.9.3-.4.2-.7.7-1.5 1.8l-1.5 2-.5.7-.5.8c-.7.8-1.4 1.7-2 2.7l-1 1.1-2.1 3-.2.2-1.4 1.8.6-.5 3-2 2.8-1.7.5-.3a257 257 0 0 0 4.5-3.3h.1l.6-1 2-2.9 1.5-2v-.1l-1.7-.4h-.4l-1.8-.2h-.1Zm19-39.7h-.8l-2.3.2c-4.1.4-3.2 1.9-4.2 5.9l-.2.6c-2.3 9.6-2 12.7-4 15.3l-.1.2-.3.4-4.8 6.3-2.3 3.2v.1c0 .3.5.4 3.2.8.5 0 .7-.2 1.6-1.4l6.6-9 .2-.2c1-1.4 1.7-3 8-21.3.4-1 0-1.1-.6-1ZM398.6 23v.4c-.4 2-1.2 3.4-13.3 25-5 8.9-7.2 7.2-8.6 9.7-1.2 2.5-33 57.3-33.5 58.3l-.2.3c-3 5.3-2.8 5.8-8.4 9-1.7 1 2.5-4.3-2-13.1-7.2-14.3-27-22.9-37.5-14l-.3.1c-.2.2-.4.2-.8 0v-.2c.8-3.5.1-4.1 3.3-7.8l6.5-7.7 3-3.5 1.1-1.4 1.7-2 3.8-4.3 1.6-1.9 21.6-25.3 1.6-1.8 2.4-2.8.5-.5.8-1c1.6-1.8 3-3.6 3.2-4.1.2-.6.2-2.3 1.8-5.3a395 395 0 0 1 22.2-25.6C381.7-6 402 5.1 398.6 23ZM359 28.6h-.3c-5.7.3-5.4 1.7-9.2 6.2l-1.3 1.6L331 57.6l-20.8 25.8-.6.8-1.2 1.5c-1.4 1.6-2.3 2.9-1.8 3h1.4c.9 0 2.2 0 5.2.7l.7.1c1.1.3 1.2-.5 7.1-8.3l2.3-3c13.8-18.3 28.6-38.6 31.1-42l.2-.4.8-1 .5-.7c1.1-1.8 1.7-2.3 4.9-2.3 9.5 0 14.4 6.8 14.6 6.8 1.3 0-4.8-7-9.4-8.6l-.3-.1c-3.7-1.3-5.6-1.2-6.7-1.3Z"/><path fill="#000" fill-rule="nonzero" d="m378.4 140.3-.3.1a20.7 20.7 0 0 0-8.4 5.4c-1.4 2-1 3.8 1.5 8l.6 1c2.7 4.5 3.3 6 2.7 8.8-.8 3.9-3.6 7.2-10.9 8.7l-1 .2-1.2.2c-18.6 3.5-50.4 4.6-95.7 3.5a2 2 0 0 1-1.4-.5 1 1 0 0 1 .5-1.8l23-3a29 29 0 0 1 4-.3h5c30.4 0 52.2-1.4 65.6-4.2 12.9-2.6 1-16.3 3.7-20.6 2.6-4.1 16.1-7.2 12.3-5.5Z"/></g></svg>